<?xml version="1.0" encoding="UTF-8" standalone="no"?>
<!DOCTYPE svg PUBLIC "-//W3C//DTD SVG 1.1//EN" "http://www.w3.org/Graphics/SVG/1.1/DTD/svg11.dtd">
<svg width="100%" height="100%" viewBox="0 0 4100 2014" version="1.1" xmlns="http://www.w3.org/2000/svg" xmlns:xlink="http://www.w3.org/1999/xlink" xml:space="preserve" xmlns:serif="http://www.serif.com/" style="fill-rule:evenodd;clip-rule:evenodd;stroke-linecap:round;stroke-linejoin:round;stroke-miterlimit:1.5;">
    <g transform="matrix(1,0,0,1,0,20)">
        <g transform="matrix(1,0,0,1,10.6651,-932.969)">
            <g transform="matrix(133.333,0,0,133.333,1452.28,1406.33)">
            </g>
            <text x="822.278px" y="1406.33px" style="font-family:'FiraSans-Regular', 'Fira Sans', sans-serif;font-size:133.333px;">no anxiet<tspan x="1386.68px " y="1406.33px ">y</tspan></text>
        </g>
        <g transform="matrix(1,0,0,1,1676.86,-936.969)">
            <text x="866.861px" y="1406.33px" style="font-family:'FiraSans-Regular', 'Fira Sans', sans-serif;font-size:133.333px;">a gr<tspan x="1091.53px 1162.86px " y="1406.33px 1406.33px ">ea</tspan>t de<tspan x="1469.93px 1541.13px " y="1406.33px 1406.33px ">al</tspan></text>
            <g transform="matrix(133.333,0,0,133.333,1521.79,1573)">
            </g>
            <text x="925.261px" y="1573px" style="font-family:'FiraSans-Regular', 'Fira Sans', sans-serif;font-size:133.333px;">of anxiet<tspan x="1456.19px " y="1573px ">y</tspan></text>
        </g>
    </g>
    <g transform="matrix(1,0,0,1,663.465,-267.322)">
        <circle cx="490.145" cy="1133.29" r="106.869" style="fill:none;stroke:black;stroke-width:20.83px;"/>
    </g>
    <g transform="matrix(1,0,0,1,1100.58,-267.322)">
        <circle cx="490.145" cy="1133.29" r="106.869" style="fill:none;stroke:black;stroke-width:20.83px;"/>
    </g>
    <g transform="matrix(1,0,0,1,1537.69,-267.322)">
        <circle cx="490.145" cy="1133.29" r="106.869" style="fill:none;stroke:black;stroke-width:20.83px;"/>
    </g>
    <g transform="matrix(1,0,0,1,1974.8,-267.322)">
        <circle cx="490.145" cy="1133.29" r="106.869" style="fill:none;stroke:black;stroke-width:20.83px;"/>
    </g>
    <g transform="matrix(1,0,0,1,2411.91,-267.322)">
        <circle cx="490.145" cy="1133.29" r="106.869" style="fill:none;stroke:black;stroke-width:20.83px;"/>
    </g>
    <g id="digits">
        <g transform="matrix(1,0,0,1,295.532,-195.614)">
            <g transform="matrix(200,0,0,200,908.878,1406.33)">
            </g>
            <text x="822.278px" y="1406.33px" style="font-family:'FiraSans-Regular', 'Fira Sans', sans-serif;font-size:200px;">1</text>
        </g>
        <g transform="matrix(1,0,0,1,721.444,-194.71)">
            <g transform="matrix(200,0,0,200,921.278,1406.33)">
            </g>
            <text x="822.278px" y="1406.33px" style="font-family:'FiraSans-Regular', 'Fira Sans', sans-serif;font-size:200px;">2</text>
        </g>
        <g transform="matrix(1,0,0,1,1159.66,-195.795)">
            <g transform="matrix(200,0,0,200,922.078,1406.33)">
            </g>
            <text x="822.278px" y="1406.33px" style="font-family:'FiraSans-Regular', 'Fira Sans', sans-serif;font-size:200px;">3</text>
        </g>
        <g transform="matrix(1,0,0,1,1588.47,-194.71)">
            <g transform="matrix(200,0,0,200,928.678,1406.33)">
            </g>
            <text x="822.278px" y="1406.33px" style="font-family:'FiraSans-Regular', 'Fira Sans', sans-serif;font-size:200px;">4</text>
        </g>
        <g transform="matrix(1,0,0,1,2031.58,-196.7)">
            <g transform="matrix(200,0,0,200,922.478,1406.33)">
            </g>
            <text x="822.278px" y="1406.33px" style="font-family:'FiraSans-Regular', 'Fira Sans', sans-serif;font-size:200px;">5</text>
        </g>
    </g>
    <g id="_2" serif:id="2" transform="matrix(1,0,0,1,392.555,-2.74292)">
        <g transform="matrix(1,0,0,1,618.257,-320.173)">
            <text x="116.244px" y="1846.22px" style="font-family:'FiraSans-Light', 'Fira Sans', sans-serif;font-weight:300;font-size:133.333px;fill:rgb(187,55,37);">A choic<tspan x="541.578px " y="1846.22px ">e</tspan> between 1 and 2 might be tr<tspan x="2308.24px 2378.38px 2449.84px 2493.71px " y="1846.22px 1846.22px 1846.22px 1846.22px ">eate</tspan>d</text>
            <g transform="matrix(133.333,0,0,133.333,2889.44,2012.88)">
            </g>
            <text x="116.244px" y="2012.88px" style="font-family:'FiraSans-Light', 'Fira Sans', sans-serif;font-weight:300;font-size:133.333px;fill:rgb(187,55,37);">diff<tspan x="314.511px 385.978px 431.711px " y="2012.88px 2012.88px 2012.88px ">ere</tspan>nt<tspan x="625.178px 661.711px " y="2012.88px 2012.88px ">ly</tspan> than a choic<tspan x="1492.64px " y="2012.88px ">e</tspan> between, s<tspan x="2234.91px 2304.38px 2361.44px " y="2012.88px 2012.88px 2012.88px ">ay,</tspan> 3 and 4.</text>
        </g>
        <g transform="matrix(1.157,0,0,1,-318.421,-158.171)">
            <path d="M911.773,1463.71L911.773,1509.48L1351.69,1509.48L1351.69,1460.42" style="fill:none;stroke:rgb(187,55,37);stroke-width:7.71px;"/>
        </g>
        <g transform="matrix(1.19236,0,0,1,512.897,-158.171)">
            <path d="M911.773,1463.71L911.773,1509.48L1351.69,1509.48L1351.69,1460.42" style="fill:none;stroke:rgb(187,55,37);stroke-width:7.57px;"/>
        </g>
    </g>
    <g id="_1" serif:id="1" transform="matrix(1,0,0,1,392.555,-2.74292)">
        <g transform="matrix(1,0,0,1,1107.1,-1723.21)">
            <g transform="matrix(133.333,0,0,133.333,2586.78,1846.22)">
            </g>
            <text x="116.244px" y="1846.22px" style="font-family:'FiraSans-Light', 'Fira Sans', sans-serif;font-weight:300;font-size:133.333px;fill:rgb(187,55,37);">V<tspan x="183.711px 253.844px " y="1846.22px 1846.22px ">al</tspan>ues lik<tspan x="677.444px " y="1846.22px ">e</tspan> 2.<tspan x="878.911px " y="1846.22px ">5</tspan> ar<tspan x="1098.24px " y="1846.22px ">e</tspan> not pos<tspan x="1657.31px " y="1846.22px ">s</tspan>ibl<tspan x="1869.84px " y="1846.22px ">e</tspan> out<tspan x="2175.71px 2235.98px " y="1846.22px 1846.22px ">co</tspan>mes.</text>
        </g>
        <g transform="matrix(0.504323,0,0,1.06434,640.99,-286.175)">
            <g transform="matrix(1.98286,-0,-0,0.93955,-2049.37,271.453)">
                <path d="M1845,753.306L1807.5,790.806L1770,753.306" style="fill:none;stroke:rgb(187,55,37);stroke-width:8.33px;stroke-linejoin:miter;stroke-miterlimit:10;"/>
                <path d="M1807.54,175.181C1807.54,444.675 1807.5,524.078 1807.5,790.806" style="fill:none;stroke:rgb(187,55,37);stroke-width:8.33px;"/>
            </g>
        </g>
    </g>
</svg>
