<?xml version="1.0" encoding="UTF-8" standalone="no"?>
<!DOCTYPE svg PUBLIC "-//W3C//DTD SVG 1.1//EN" "http://www.w3.org/Graphics/SVG/1.1/DTD/svg11.dtd">
<svg width="100%" height="100%" viewBox="0 0 4100 2014" version="1.1" xmlns="http://www.w3.org/2000/svg" xmlns:xlink="http://www.w3.org/1999/xlink" xml:space="preserve" xmlns:serif="http://www.serif.com/" style="fill-rule:evenodd;clip-rule:evenodd;stroke-linecap:round;stroke-linejoin:round;stroke-miterlimit:1.5;">
    <g transform="matrix(1,0,0,1,0,20)">
        <g transform="matrix(1,0,0,1,10.6651,-932.969)">
            <g transform="matrix(133.333,0,0,133.333,1452.28,1406.33)">
            </g>
            <text x="822.278px" y="1406.33px" style="font-family:'FiraSans-Regular', 'Fira Sans', sans-serif;font-size:133.333px;">no anxiet<tspan x="1386.68px " y="1406.33px ">y</tspan></text>
        </g>
        <g transform="matrix(1,0,0,1,1676.86,-936.969)">
            <text x="866.861px" y="1406.33px" style="font-family:'FiraSans-Regular', 'Fira Sans', sans-serif;font-size:133.333px;">a gr<tspan x="1091.53px 1162.86px " y="1406.33px 1406.33px ">ea</tspan>t de<tspan x="1469.93px 1541.13px " y="1406.33px 1406.33px ">al</tspan></text>
            <g transform="matrix(133.333,0,0,133.333,1521.79,1573)">
            </g>
            <text x="925.261px" y="1573px" style="font-family:'FiraSans-Regular', 'Fira Sans', sans-serif;font-size:133.333px;">of anxiet<tspan x="1456.19px " y="1573px ">y</tspan></text>
        </g>
    </g>
    <g transform="matrix(1,0,0,1,663.465,-267.322)">
        <circle cx="490.145" cy="1133.29" r="106.869" style="fill:none;stroke:black;stroke-width:20.83px;"/>
    </g>
    <g transform="matrix(1,0,0,1,1100.58,-267.322)">
        <circle cx="490.145" cy="1133.29" r="106.869" style="fill:none;stroke:black;stroke-width:20.83px;"/>
    </g>
    <g transform="matrix(1,0,0,1,1537.69,-267.322)">
        <circle cx="490.145" cy="1133.29" r="106.869" style="fill:none;stroke:black;stroke-width:20.83px;"/>
    </g>
    <g transform="matrix(1,0,0,1,1974.8,-267.322)">
        <circle cx="490.145" cy="1133.29" r="106.869" style="fill:none;stroke:black;stroke-width:20.83px;"/>
    </g>
    <g transform="matrix(1,0,0,1,2411.91,-267.322)">
        <circle cx="490.145" cy="1133.29" r="106.869" style="fill:none;stroke:black;stroke-width:20.83px;"/>
    </g>
    <g id="faces">
        <g transform="matrix(0.402832,0,0,0.402832,1153.61,1143.82)">
            <g transform="matrix(1,0,0,1,-341.333,-341.333)">
                <g transform="matrix(1.33333,0,0,1.33333,0,0)">
                    <path d="M464,256C464,141.895 370.105,48 256,48C141.895,48 48,141.895 48,256C48,370.105 141.895,464 256,464C370.105,464 464,370.105 464,256ZM0,256C-0,115.563 115.563,0 256,0C396.437,-0 512,115.563 512,256C512,396.437 396.437,512 256,512C115.563,512 0,396.437 0,256ZM130.7,313.9C126.5,300.3 137.8,288 152,288L364.5,288C378.7,288 390,300.4 385.8,313.9C369,368.4 318.2,408 258.2,408C198.2,408 147.4,368.4 130.7,313.9ZM217.6,228.8L217.4,228.6C217.2,228.4 217,228.1 216.7,227.7C216.1,226.9 215.1,225.7 213.9,224.3C211.4,221.5 207.9,217.7 203.7,214C194.9,206.2 184.9,200 176,200C167.1,200 157.1,206.2 148.3,214C144.1,217.7 140.6,221.5 138.1,224.3C136.9,225.7 135.9,226.9 135.3,227.7C135,228.1 134.7,228.4 134.6,228.6L134.4,228.8C132.3,231.6 128.7,232.7 125.5,231.6C122.3,230.5 120,227.5 120,224C120,206.1 126.7,188.4 136.6,175.2C146.4,162.2 160.5,152 176,152C191.5,152 205.6,162.2 215.4,175.2C225.3,188.4 232,206.1 232,224C232,227.4 229.8,230.5 226.5,231.6C223.2,232.7 219.6,231.6 217.6,228.8ZM377.6,228.8L377.4,228.6C377.2,228.4 377,228.1 376.7,227.7C376.1,226.9 375.1,225.7 373.9,224.3C371.4,221.5 367.9,217.7 363.7,214C354.9,206.2 344.9,200 336,200C327.1,200 317.1,206.2 308.3,214C304.1,217.7 300.6,221.5 298.1,224.3C296.9,225.7 295.9,226.9 295.3,227.7C295,228.1 294.7,228.4 294.6,228.6L294.4,228.8C292.3,231.6 288.7,232.7 285.5,231.6C282.3,230.5 280,227.5 280,224C280,206.1 286.7,188.4 296.6,175.2C306.4,162.2 320.5,152 336,152C351.5,152 365.6,162.2 375.4,175.2C385.3,188.4 392,206.1 392,224C392,227.4 389.8,230.5 386.5,231.6C383.2,232.7 379.6,231.6 377.6,228.8Z" style="fill-rule:nonzero;"/>
                </g>
            </g>
        </g>
        <g transform="matrix(0.402832,0,0,0.402832,1590.72,1143.72)">
            <g transform="matrix(1,0,0,1,-341.333,-341.333)">
                <g transform="matrix(1.33333,0,0,1.33333,0,0)">
                    <path d="M464,256C464,141.895 370.105,48 256,48C141.895,48 48,141.895 48,256C48,370.105 141.895,464 256,464C370.105,464 464,370.105 464,256ZM0,256C-0,115.563 115.563,0 256,0C396.437,-0 512,115.563 512,256C512,396.437 396.437,512 256,512C115.563,512 0,396.437 0,256ZM177.6,318.1C192.8,334.5 218.8,352 256,352C293.2,352 319.2,334.5 334.4,318.1C343.4,308.4 358.6,307.7 368.3,316.7C378,325.7 378.7,340.9 369.7,350.6C347.7,374.4 309.7,400 256.1,400C202.5,400 164.4,374.5 142.5,350.6C133.5,340.9 134.1,325.7 143.9,316.7C153.7,307.7 168.8,308.3 177.8,318.1L177.6,318.1ZM144.4,208C144.4,190.445 158.845,176 176.4,176C193.955,176 208.4,190.445 208.4,208C208.4,225.555 193.955,240 176.4,240C158.845,240 144.4,225.555 144.4,208ZM336.4,176C353.955,176 368.4,190.445 368.4,208C368.4,225.555 353.955,240 336.4,240C318.845,240 304.4,225.555 304.4,208C304.4,190.445 318.845,176 336.4,176Z" style="fill-rule:nonzero;"/>
                </g>
            </g>
        </g>
        <g transform="matrix(0.402832,0,0,0.402832,2027.83,1143.83)">
            <g transform="matrix(1,0,0,1,-341.333,-341.333)">
                <g transform="matrix(1.33333,0,0,1.33333,0,0)">
                    <path d="M256,48C141.895,48 48,141.895 48,256C48,370.105 141.895,464 256,464C370.105,464 464,370.105 464,256C464,141.895 370.105,48 256,48ZM512,256C512,396.437 396.437,512 256,512C115.563,512 0,396.437 0,256C-0,115.563 115.563,0 256,0C396.437,-0 512,115.563 512,256ZM144.4,208C144.4,190.445 158.845,176 176.4,176C193.955,176 208.4,190.445 208.4,208C208.4,225.555 193.955,240 176.4,240C158.845,240 144.4,225.555 144.4,208ZM336.4,176C353.955,176 368.4,190.445 368.4,208C368.4,225.555 353.955,240 336.4,240C318.845,240 304.4,225.555 304.4,208C304.4,190.445 318.845,176 336.4,176Z" style="fill-rule:nonzero;"/>
                </g>
            </g>
        </g>
        <g transform="matrix(0.402832,0,0,0.402832,2464.95,1143.72)">
            <g transform="matrix(1,0,0,1,-341.333,-341.333)">
                <g transform="matrix(1.33333,0,0,1.33333,0,0)">
                    <path d="M464,256C464,370.105 370.105,464 256,464C141.895,464 48,370.105 48,256C48,141.895 141.895,48 256,48C370.105,48 464,141.895 464,256ZM256,0C115.563,0 -0,115.563 0,256C0,396.437 115.563,512 256,512C396.437,512 512,396.437 512,256C512,115.563 396.437,0 256,0ZM160.4,248C173.566,248 184.4,237.166 184.4,224C184.4,210.834 173.566,200 160.4,200C147.234,200 136.4,210.834 136.4,224C136.4,237.166 147.234,248 160.4,248ZM376.4,224C376.4,210.834 365.566,200 352.4,200C339.234,200 328.4,210.834 328.4,224C328.4,237.166 339.234,248 352.4,248C365.566,248 376.4,237.166 376.4,224ZM192,336C178.7,336 168,346.7 168,360C168,373.3 178.7,384 192,384L320,384C333.3,384 344,373.3 344,360C344,346.7 333.3,336 320,336L192,336ZM160,176C186.332,176 208,197.668 208,224C208,250.332 186.332,272 160,272C133.668,272 112,250.332 112,224C112,197.668 133.668,176 160,176ZM160,304C203.887,304 240,267.887 240,224C240,180.113 203.887,144 160,144C116.113,144 80,180.113 80,224C80,267.887 116.113,304 160,304ZM304,224C304,197.668 325.668,176 352,176C378.332,176 400,197.668 400,224C400,250.332 378.332,272 352,272C325.668,272 304,250.332 304,224ZM432,224C432,180.113 395.887,144 352,144C308.113,144 272,180.113 272,224C272,267.887 308.113,304 352,304C395.887,304 432,267.887 432,224Z" style="fill-rule:nonzero;"/>
                </g>
            </g>
        </g>
        <g transform="matrix(0.402832,0,0,0.402832,2902.06,1143.93)">
            <g transform="matrix(1,0,0,1,-341.333,-341.333)">
                <g transform="matrix(1.33333,0,0,1.33333,0,0)">
                    <path d="M464,256C464,141.895 370.105,48 256,48C141.895,48 48,141.895 48,256C48,370.105 141.895,464 256,464C370.105,464 464,370.105 464,256ZM0,256C-0,115.563 115.563,0 256,0C396.437,-0 512,115.563 512,256C512,396.437 396.437,512 256,512C115.563,512 0,396.437 0,256ZM256,288C291.109,288 320,316.891 320,352C320,387.109 291.109,416 256,416C220.891,416 192,387.109 192,352C192,316.891 220.891,288 256,288ZM103,135C112.4,125.6 127.6,125.6 136.9,135L159.9,158L182.9,135C192.3,125.6 207.5,125.6 216.8,135C226.1,144.4 226.2,159.6 216.8,168.9L193.8,191.9L216.8,214.9C226.2,224.3 226.2,239.5 216.8,248.8C207.4,258.1 192.2,258.2 182.9,248.8L159.9,225.8L136.9,248.8C127.5,258.2 112.3,258.2 103,248.8C93.7,239.4 93.6,224.2 103,214.9L126,191.9L103,168.9C93.6,159.5 93.6,144.3 103,135ZM295,135C304.4,125.6 319.6,125.6 328.9,135L351.9,158L374.9,135C384.3,125.6 399.5,125.6 408.8,135C418.1,144.4 418.2,159.6 408.8,168.9L385.8,191.9L408.8,214.9C418.2,224.3 418.2,239.5 408.8,248.8C399.4,258.1 384.2,258.2 374.9,248.8L351.9,225.8L328.9,248.8C319.5,258.2 304.3,258.2 295,248.8C285.7,239.4 285.6,224.2 295,214.9L318,191.9L295,168.9C285.6,159.5 285.6,144.3 295,135Z" style="fill-rule:nonzero;"/>
                </g>
            </g>
        </g>
    </g>
</svg>
